<svg id="Layer_1" enable-background="new 0 0 512 512" viewBox="0 0 512 512" xmlns="http://www.w3.org/2000/svg" xmlns:xlink="http://www.w3.org/1999/xlink"><linearGradient id="SVGID_1_" gradientTransform="matrix(1 0 0 -1 0 514.28)" gradientUnits="userSpaceOnUse" x1="34.08" x2="517.29" y1="528.31" y2="45.1"><stop offset="0" stop-color="#f8da30"/><stop offset="1" stop-color="#fdab22"/></linearGradient><g id="Layer_2_00000146476609146896330750000004015705474063742128_"><g id="Layer_2_copy_5"><g id="_132"><path d="m442.5 18.1h-373c-38.4 0-69.5 31.1-69.5 69.5v240.5c0 38.4 31.1 69.5 69.4 69.5h236.6l87.7 87.7c18.2 18.2 49.3 5.3 49.3-20.4v-67.3c38.2-.2 69-31.3 69-69.5v-240.5c0-38.4-31.1-69.5-69.5-69.5zm-323.5 219.9c-22.6 0-41-18.4-41-41s18.4-41 41-41 41 18.4 41 41-18.4 41-41 41zm137 0c-22.6 0-41-18.4-41-41s18.4-41 41-41 41 18.4 41 41-18.4 41-41 41zm137 0c-22.6 0-41-18.4-41-41s18.4-41 41-41 41 18.4 41 41-18.4 41-41 41z" fill="url(#SVGID_1_)"/></g></g></g></svg>