<svg id="Layer_1" viewBox="0 0 512 512" xmlns="http://www.w3.org/2000/svg" data-name="Layer 1"><g fill-rule="evenodd"><path d="m256 0c140.8 0 256 115.2 256 256 0 140.8-115.2 256-256 256-140.8 0-256-115.2-256-256 0-140.8 115.2-256 256-256z" fill="#ffb933"/><path d="m159.687 283.841a97.876 97.876 0 0 0 12.235 29.509l-5.652 9.465-6.9 11.532a122.076 122.076 0 0 0 23.447 23.453l11.532-6.9 9.465-5.653a97.876 97.876 0 0 0 29.509 12.235l2.677 10.687 3.291 13.029a121.529 121.529 0 0 0 33.141 0l3.292-13.029 2.678-10.692a97.865 97.865 0 0 0 29.509-12.235l9.466 5.653 11.554 6.9a121.315 121.315 0 0 0 23.426-23.448l-6.9-11.532-5.629-9.465a98.463 98.463 0 0 0 12.234-29.509l10.669-2.679 13.03-3.291a120.94 120.94 0 0 0 1.139-16.571h-242.069a120.94 120.94 0 0 0 1.135 16.571l13.052 3.291z" fill="#8d9ca8"/><path d="m187.993 261.3a67.871 67.871 0 0 0 135.742 0z" fill="#eaf6ff"/><path d="m255.864 129.667a32.847 32.847 0 0 1 32.664 29.464 32.824 32.824 0 0 1 53.389 25.582 35.133 35.133 0 0 1 -.318 4.653c36.728-7.854 46.92 55.614 7.491 52.6h-186.452c-39.429 3.019-29.237-60.449 7.49-52.595a35.134 35.134 0 0 1 -.317-4.653 32.823 32.823 0 0 1 53.389-25.587 32.866 32.866 0 0 1 32.665-29.464z" fill="#fa4655"/><path d="m429.627 308.9a181.642 181.642 0 0 1 -173.763 128.7c-90.593 0-165.682-66.35-179.37-153.084h-19.885l16.457-28.511 16.457-28.533 16.457 28.533 16.457 28.511h-19.794a155.867 155.867 0 0 0 299.836 24.384z" fill="#4bd16d"/><path d="m255.864 74.394c90.593 0 165.682 66.35 179.37 153.084h20.157l-16.457 28.533-16.457 28.511-16.477-28.511-16.46-28.533h19.544a155.866 155.866 0 0 0 -299.835-24.378h-27.149a181.662 181.662 0 0 1 173.763-128.7z" fill="#4bd16d"/><path d="m167.019 241.961c-29.464-2.475-24.2-47.919 1.884-52.844-35.729-6.175-45.24 55.817-6.265 52.844zm88.845-112.294a32.826 32.826 0 0 0 -31.734 24.425 33.3 33.3 0 0 1 8.671 5.039 32.851 32.851 0 0 1 27.875-29.1 33.576 33.576 0 0 0 -4.812-.363zm-84.8 48.372a45.736 45.736 0 0 1 8.558 2.906 32.855 32.855 0 0 1 27.829-28.715 33.588 33.588 0 0 0 -4.812-.34 32.822 32.822 0 0 0 -32.12 26.059 4.454 4.454 0 0 1 .545.09z" fill="#dd404d"/><path d="m148.768 277.871a120.94 120.94 0 0 1 -1.135-16.571h-12.8a120.94 120.94 0 0 0 1.135 16.571l13.052 3.291 10.669 2.679a97.876 97.876 0 0 0 12.235 29.509l-5.652 9.465-6.9 11.532a122.076 122.076 0 0 0 23.445 23.453l7.332-4.381a122.2 122.2 0 0 1 -17.978-19.067l6.878-11.532 5.652-9.465a97.873 97.873 0 0 1 -12.234-29.509l-10.667-2.684zm165.388 71.094 3.223 1.93 11.554 6.9c1.861-1.407 3.677-2.883 5.448-4.381l-4.2-2.519-9.465-5.653c-2.134 1.317-4.313 2.565-6.56 3.723zm-68.056 8.512a98.109 98.109 0 0 1 -29.509-12.235l-6.242 3.746a98.431 98.431 0 0 0 22.971 8.489l2.68 10.692 3.291 13.029a120.94 120.94 0 0 0 16.571 1.135c2.156 0 4.29-.068 6.4-.182-3.428-.181-6.833-.5-10.169-.953l-3.293-13.029z" fill="#7f8c97"/><path d="m262.265 328.876a67.885 67.885 0 0 1 -61.465-67.576h-12.8a67.88 67.88 0 0 0 67.871 67.871c2.156 0 4.29-.113 6.4-.3z" fill="#d3dde6"/></g><path d="m159.974 247.672q1.416 0 2.886-.1h186.031c12.36.872 22.029-3.834 27.251-13.3 6.132-11.11 4.542-27.311-3.78-38.521a30.058 30.058 0 0 0 -24.625-12.651h-.24a38.425 38.425 0 0 0 -55.2-32.938 38.468 38.468 0 0 0 -72.846 0 38.427 38.427 0 0 0 -55.2 32.939h-.243a30.068 30.068 0 0 0 -24.633 12.659c-8.319 11.208-9.906 27.406-3.774 38.515 4.811 8.708 13.399 13.398 24.373 13.397zm-11.594-45.235a18.908 18.908 0 0 1 15.551-8.143 24.091 24.091 0 0 1 4.993.549 27.326 27.326 0 0 1 12.407 6.072 5.606 5.606 0 1 0 7.5-8.339 37.035 37.035 0 0 0 -13.383-7.526c0-.111-.012-.225-.012-.334a27.246 27.246 0 0 1 27.212-27.216 26.852 26.852 0 0 1 14.745 4.337 37.053 37.053 0 0 0 3.508 18.034 5.606 5.606 0 0 0 10.071-4.929c-2.116-4.322-2.831-9.294-2.186-15.2v-.021-.013a27.232 27.232 0 0 1 53.777-2.609 37.028 37.028 0 0 0 -9.608 16.23 5.607 5.607 0 1 0 10.823 2.933c1.267-4.676 4.02-8.885 8.406-12.863a26.857 26.857 0 0 1 16.916-5.9 27.246 27.246 0 0 1 27.215 27.215c0 .11-.01.224-.012.334a37.313 37.313 0 0 0 -13.394 7.515 5.607 5.607 0 1 0 7.473 8.361 27.532 27.532 0 0 1 12.433-6.081c10.639-2.262 17.042 2.878 20.54 7.591 5.738 7.729 7.014 19.086 2.967 26.419-3.05 5.525-8.858 8.126-16.8 7.516-.142-.011-.285-.016-.428-.016h-103.953a41.993 41.993 0 0 0 5.406-12.184 5.607 5.607 0 0 0 -10.816-2.961c-1.863 6.808-5.128 11.775-9.953 15.145h-67.125c-.142 0-.285.005-.428.016-7.942.611-13.754-1.992-16.805-7.52-4.047-7.33-2.774-18.685 2.96-26.412zm-19.139 58.863a127.2 127.2 0 0 0 1.188 17.337 5.609 5.609 0 0 0 4.181 4.669l20.467 5.154a102.611 102.611 0 0 0 10.323 24.888l-10.83 18.124a5.6 5.6 0 0 0 .343 6.254 127.535 127.535 0 0 0 24.5 24.527 5.609 5.609 0 0 0 6.27.351l18.122-10.832a103.6 103.6 0 0 0 24.909 10.321l5.154 20.471a5.608 5.608 0 0 0 4.67 4.183 127.148 127.148 0 0 0 17.336 1.187 130.957 130.957 0 0 0 17.314-1.184 5.608 5.608 0 0 0 4.693-4.186l5.153-20.471a103.222 103.222 0 0 0 24.894-10.321l18.112 10.828a5.606 5.606 0 0 0 6.268-.344 127.808 127.808 0 0 0 24.524-24.523 5.609 5.609 0 0 0 .345-6.269l-10.83-18.111a103.158 103.158 0 0 0 10.321-24.894l20.471-5.154a5.606 5.606 0 0 0 4.182-4.669 127.036 127.036 0 0 0 1.188-17.337 5.606 5.606 0 0 0 -5.606-5.607h-242.055a5.607 5.607 0 0 0 -5.607 5.608zm188.631 5.607a62.249 62.249 0 0 1 -123.994 0zm-135.259 0a73.477 73.477 0 0 0 146.525 0h42.022q-.156 3.245-.494 6.467l-19.983 5.026a5.607 5.607 0 0 0 -4.095 4.164 92.093 92.093 0 0 1 -11.534 27.818 5.6 5.6 0 0 0 -.054 5.838l10.576 17.693a116.5 116.5 0 0 1 -17.086 17.087l-17.69-10.576a5.613 5.613 0 0 0 -5.839.055 92.092 92.092 0 0 1 -27.817 11.534 5.607 5.607 0 0 0 -4.164 4.1l-5.025 19.973a115.558 115.558 0 0 1 -24.151.01l-5.028-19.983a5.605 5.605 0 0 0 -4.163-4.1 92.481 92.481 0 0 1 -27.846-11.537 5.607 5.607 0 0 0 -5.838-.048l-17.685 10.572a116.279 116.279 0 0 1 -17.076-17.086l10.577-17.684a5.606 5.606 0 0 0 -.049-5.847 91.5 91.5 0 0 1 -11.531-27.807 5.608 5.608 0 0 0 -4.1-4.176l-19.981-5.025q-.336-3.221-.494-6.469zm252.387 43.623a188.755 188.755 0 0 1 -66.654 95.133 187.247 187.247 0 0 1 -296.561-115.535h-15.178a5.606 5.606 0 0 1 -4.854-8.413l16.478-28.509 16.454-28.527a5.606 5.606 0 0 1 9.713 0l32.912 57.039a5.607 5.607 0 0 1 -4.855 8.41h-12.9a150.26 150.26 0 0 0 287.655 16.872 5.606 5.606 0 1 1 10.547 3.805 161.465 161.465 0 0 1 -310.608-25.265 5.607 5.607 0 0 1 5.513-6.626h10.083l-23.203-40.214-23.219 40.214h10.19a5.606 5.606 0 0 1 5.538 4.732c13.565 85.954 86.669 148.345 173.824 148.345 78.035 0 145.707-50.122 168.392-124.723a5.606 5.606 0 1 1 10.733 3.262zm25.253-80.246-32.934 57.039a5.606 5.606 0 0 1 -9.712 0l-32.913-57.042a5.607 5.607 0 0 1 4.857-8.408h12.649a150.258 150.258 0 0 0 -287.659-16.873 5.607 5.607 0 1 1 -10.548-3.8 161.466 161.466 0 0 1 310.607 25.259 5.608 5.608 0 0 1 -5.513 6.628h-9.837l23.206 40.219 23.223-40.219h-10.441a5.606 5.606 0 0 1 -5.538-4.733c-13.566-85.954-86.669-148.345-173.825-148.345-78.035 0-145.706 50.122-168.391 124.724a5.606 5.606 0 0 1 -10.728-3.262 188.755 188.755 0 0 1 66.653-95.134 187.246 187.246 0 0 1 296.556 115.536h15.429a5.607 5.607 0 0 1 4.854 8.411z" fill="#282828"/></svg>