<svg height="512" viewBox="0 0 512 512" width="512" xmlns="http://www.w3.org/2000/svg"><g id="b"><g><path d="m412.618 110.595h-14.105v-103.586h-285.025v103.586h-14.107c-51.49 0-93.381 41.891-93.381 93.381v121.879c0 51.49 41.89 93.381 93.381 93.381h89.771c-4.749 15.386-11.147 32.877-19.303 48.574-11.015 21.203 10.778 44.529 32.666 35.058 27.759-12.002 68.067-36.213 103.952-83.632h106.15c51.491 0 93.382-41.891 93.382-93.381v-121.879c0-51.49-41.891-93.381-93.382-93.381z" fill="#fff"/><g><path d="m412.619 126.319h-313.238c-42.889 0-77.657 34.768-77.657 77.657v121.878c0 42.888 34.768 77.657 77.657 77.657h110.549c-4.686 18.191-13.289 46.837-26.127 71.547-4.209 8.101 4.093 17 12.472 13.377 25.385-10.976 64.995-34.326 99.859-81.641.764-1.036 1.265-2.149 1.565-3.283h114.92c42.889 0 77.657-34.768 77.657-77.657v-121.878c0-42.889-34.768-77.657-77.657-77.657z" fill="#776cff"/><g><path d="m129.211 22.733h253.577v302.557h-253.577z" fill="#caeaed"/><path d="m393.656 186.158-137.656 88.68-137.657-88.68v177.36h275.313z" fill="#ff3d81"/><path d="m381.348 355.123-110.975-78.242c-1.129-.795-1.398-2.355-.603-3.483s2.356-1.396 3.483-.603l110.975 78.242c1.129.795 1.398 2.355.603 3.483-.797 1.132-2.359 1.396-3.483.603z" fill="#9b377f"/><path d="m127.168 354.521c-.795-1.128-.525-2.688.603-3.483l110.974-78.242c2.702-1.907 5.586 2.18 2.881 4.086l-110.974 78.242c-1.121.791-2.682.533-3.484-.603z" fill="#9b377f"/><circle cx="256" cy="280.017" fill="#fcc836" r="61.836"/><path d="m251.433 327.144c-10.4 0-20.156-3.687-27.68-11.21-9.051-9.051-12.179-22.079-12.179-34.877 0-28.052 14.728-48.854 45.949-48.854 28.375 0 44.564 16.31 44.564 45.395 0 14.2-4.615 30.171-18.961 30.171-7.999 0-13.055-4.693-14.254-9.688-2.215 2.677-4.637 4.799-7.267 6.366-7.934 4.737-27.196 3.467-27.196-13.286 0-16.093 17.575-16.47 32.662-16.47v-2.353c0-7.6-4.605-10.38-12.179-10.38-3.876 0-7.191.514-10.726 2.698-1.686 1.047-3.406 1.399-4.637-.138-1.188-1.486-1.799-3.443-1.799-4.637 0-5.766 12.655-8.166 18.822-8.166 7.203 0 14.287 2.274 18.477 8.097 1.889 2.63 2.836 5.975 2.836 10.034v23.251c.581 3.631 2.443 6.781 6.09 6.781 7.44 0 8.443-12.911 8.443-20.345 0-23.901-10.63-38.475-35.016-38.475-24.814 0-35.983 15.1-35.983 39.858 0 9.043 1.557 18.629 6.712 26.02 4.651 6.673 12.521 11.349 24.981 11.349 5.409 0 9.619-.565 15.224-2.837 2.5-1.02 5.098-1.613 6.506.691 1.422 2.345 1.517 4.278-1.385 6.159-5.291 3.419-15.627 4.844-22.006 4.844zm16.055-39.858v-5.675c-9.384 0-21.175-.286-21.175 9.411 0 12.817 21.175 7.593 21.175-3.736z" fill="#fff"/><circle cx="168.904" cy="60.139" fill="#5ed4be" r="13.113"/><path d="m198.676 47.026h157.532v13.113h-157.532z" fill="#5ed4be"/><path d="m361.634 93.143h-211.268c-1.381 0-2.5-1.119-2.5-2.5s1.119-2.5 2.5-2.5h211.268c1.381 0 2.5 1.119 2.5 2.5s-1.119 2.5-2.5 2.5z" fill="#fff"/><g fill="#776cff"><path d="m194.163 120.196h-43.797c-1.381 0-2.5-1.119-2.5-2.5s1.119-2.5 2.5-2.5h43.797c1.381 0 2.5 1.119 2.5 2.5s-1.119 2.5-2.5 2.5z"/><path d="m194.163 142.281h-43.797c-1.381 0-2.5-1.119-2.5-2.5s1.119-2.5 2.5-2.5h43.797c1.381 0 2.5 1.119 2.5 2.5s-1.119 2.5-2.5 2.5z"/><path d="m361.634 169.887h-179.617c-1.381 0-2.5-1.119-2.5-2.5s1.119-2.5 2.5-2.5h179.617c1.381 0 2.5 1.119 2.5 2.5s-1.119 2.5-2.5 2.5z"/><path d="m361.634 191.419h-211.268c-1.381 0-2.5-1.119-2.5-2.5s1.119-2.5 2.5-2.5h211.268c1.381 0 2.5 1.119 2.5 2.5s-1.119 2.5-2.5 2.5z"/></g></g></g></g></g></svg>