<svg enable-background="new 0 0 140 140" height="512" viewBox="0 0 140 140" width="512" xmlns="http://www.w3.org/2000/svg"><circle cx="70" cy="70" fill="#ffd25a" r="64"/><path d="m70 134c-7.289978 0-14.289978-1.2399902-20.8099976-3.4799805l-17.9400024-17.9400634c-.7700195-.7598877-1.2600098-1.8199463-1.2600098-2.9899902v-69.2199708c0-2.2999268 1.8599854-4.1700439 4.1600342-4.1700439h12.5c.5-1.7399902 2.0799561-3.0200195 3.9899902-3.0200195h4c0-2.289917 1.8599854-4.1499023 4.1499634-4.1499023 1.25 0 2.3600464.5699463 3.1199951 1.4499512l2.710022 2.6999512h2.3300171c1.0700073 0 2.0299683.4100342 2.7600098 1.0800781l.0099487-.0100099.1300049.1300049c.0500488.0499267.1000366.0999756.1500244.1500244l1.6699829 1.6699219h11.7600098c1.25 0 2.3599854.5700684 3.1300049 1.4400635l41.5999755 41.6099853c.1500244.1199951.2800293.25.4000244.3999023l3.9700317 3.9700928c-6.2400512 28.7999268-31.8600463 50.3800049-62.5300292 50.3800049z" opacity=".1"/><path d="m83.4278412 36.2035942h-49.2740631c-2.3021507 0-4.1684742 1.8661957-4.1684742 4.1684723v69.2164154c0 2.3020172 1.8663235 4.1684723 4.1684742 4.1684723h49.2740631c2.3021545 0 4.1684799-1.8664551 4.1684799-4.1684723v-69.2164154c0-2.3022766-1.8663254-4.1684723-4.1684799-4.1684723z" fill="#d6b24e"/><path d="m34.153713 40.371811h49.274193v69.216415h-49.274193z" fill="#e6e7e8"/><path d="m66.9454651 33.17519h-4.0017624c0-2.2821789-1.8653717-4.1476116-4.1580429-4.1476116-2.2822418 0-4.1476746 1.8654327-4.1476746 4.1476116h-4.0017014c-2.3031044 0-4.1684723 1.8756104-4.1684723 4.1684761v6.5132408h24.6461258v-6.5132408c.0000001-2.2928658-1.8654327-4.1684761-4.1684722-4.1684761zm-8.1546555 1.9384536c-1.0681305 0-1.934063-.8660583-1.934063-1.9341278 0-1.068325.8659325-1.9341278 1.934063-1.9341278 1.0681992 0 1.9341278.8658028 1.9341278 1.9341278 0 1.0680695-.8659286 1.9341278-1.9341278 1.9341278z" fill="#db584d"/><path d="m46.467812 40.345352h24.64613v3.511553h-24.64613z" fill="#ce4d46"/><path d="m37.688244 46.951267h15.804358v18.498282h-15.804358z" fill="#509fd7"/><g fill="#b0b1b5"><path d="m37.688244 68.389092h42.205132v1.738618h-42.205132z"/><path d="m37.688244 74.175636h42.205132v1.738618h-42.205132z"/><path d="m37.688244 79.962174h42.205132v1.738618h-42.205132z"/><path d="m37.688244 85.748711h42.205132v1.738618h-42.205132z"/><path d="m37.688244 91.535248h42.205132v1.738618h-42.205132z"/><path d="m37.688244 97.321785h42.205132v1.738618h-42.205132z"/><path d="m37.688244 103.10833h42.205132v1.738618h-42.205132z"/></g><circle cx="82.653" cy="83.316" fill="#dad7dc" r="22.022"/><circle cx="82.653" cy="83.316" fill="#344e5c" r="17.358"/><circle cx="82.653" cy="83.316" fill="#4388b9" r="12.694"/><circle cx="82.653" cy="83.316" fill="#ffd25a" r="8.029"/><circle cx="82.653" cy="83.316" fill="#dc594e" r="3.365"/><path d="m105.2616196 62.1209869-21.718338 21.7183304c-.3399353.3399429-.8915329.3399429-1.2314758 0-.3399353-.3399353-.3399353-.8915329 0-1.2314682l21.718338-21.7183342c.3399353-.3399391.8915329-.3399391 1.2314758 0 .3399353.3399353.3399353.8915329 0 1.231472z" fill="#e6e7e8"/><path d="m105.5488281 60.6015625-.8356323-4.4658203-4.9887085 4.9887695.8356323 4.4658203 4.4658203.8356934 4.9887696-4.9887695z" fill="#aa975d"/><path d="m105.5488586 60.6016464-4.9887313 4.9887314-.8356553-4.4658394 4.9887238-4.9887314z" fill="#9e9054"/></svg>