<?xml version="1.0" standalone="no"?>
<!DOCTYPE svg PUBLIC "-//W3C//DTD SVG 20010904//EN"
 "http://www.w3.org/TR/2001/REC-SVG-20010904/DTD/svg10.dtd">
<svg version="1.0" xmlns="http://www.w3.org/2000/svg"
 width="330.000000pt" height="85.000000pt" viewBox="0 0 330.000000 85.000000"
 preserveAspectRatio="xMidYMid meet">

<g transform="translate(0.000000,85.000000) scale(0.100000,-0.100000)"
fill="#000000" stroke="none">
<path d="M2850 623 c0 -5 9 -23 21 -42 11 -18 18 -35 16 -37 -2 -2 -28 0 -57
6 -29 5 -95 10 -146 10 -87 0 -94 -1 -94 -20 0 -19 7 -20 98 -20 100 0 212
-16 212 -31 0 -4 -16 -17 -35 -29 -34 -21 -47 -50 -22 -50 9 0 99 54 126 76 1
1 -17 34 -40 73 -27 44 -51 71 -61 71 -10 0 -18 -3 -18 -7z"/>
<path d="M1514 605 c-8 -19 12 -270 22 -286 24 -40 31 51 15 204 -9 81 -24
116 -37 82z"/>
<path d="M1852 526 c2 -53 3 -96 2 -96 -2 0 -28 34 -59 75 -61 80 -94 110
-108 96 -10 -10 11 -253 24 -266 19 -20 26 13 20 98 l-6 88 25 -28 c14 -16 46
-57 72 -91 71 -92 82 -86 73 42 -9 129 -17 168 -34 174 -11 4 -13 -14 -9 -92z"/>
<path d="M1424 596 c-7 -18 13 -273 22 -288 24 -38 31 71 15 215 -7 71 -25
105 -37 73z"/>
<path d="M2366 553 c-3 -16 -8 -45 -12 -65 -3 -21 -9 -38 -13 -38 -3 0 -15 17
-26 37 -28 52 -42 52 -66 -1 -11 -25 -22 -46 -24 -46 -2 0 -12 25 -22 56 -16
52 -35 75 -49 61 -7 -6 31 -127 53 -169 7 -16 18 -28 23 -28 6 0 21 23 33 52
l23 52 28 -48 c15 -26 33 -45 39 -43 14 4 32 72 42 152 6 46 5 55 -8 55 -9 0
-18 -12 -21 -27z"/>
<path d="M1967 530 c-32 -25 -42 -69 -27 -115 23 -71 107 -89 161 -36 39 40
41 109 4 146 -31 32 -100 35 -138 5z m105 -27 c28 -25 24 -88 -6 -108 -50 -33
-106 16 -90 79 11 45 61 61 96 29z"/>
<path d="M670 523 c-19 -3 -41 -9 -47 -15 -25 -20 -8 -228 21 -256 20 -21 161
-5 161 18 0 12 -14 15 -70 15 l-70 0 -3 34 c-4 39 9 51 55 51 37 0 49 13 29
29 -9 7 -29 9 -55 5 l-41 -7 0 41 c0 45 9 52 73 52 47 0 73 12 63 29 -7 11
-46 12 -116 4z"/>
<path d="M1120 473 c-17 -12 -25 -13 -28 -5 -2 7 -10 12 -18 12 -16 0 -19 -70
-8 -154 6 -37 10 -46 27 -46 19 0 19 4 13 70 l-6 71 36 15 c23 10 34 20 32 31
-4 24 -20 26 -48 6z"/>
<path d="M1233 475 c-12 -8 -27 -30 -33 -49 -34 -103 80 -180 160 -108 26 22
31 35 32 71 1 65 -26 95 -88 99 -32 2 -57 -3 -71 -13z m94 -23 c21 -13 33 -60
23 -86 -21 -55 -89 -55 -110 0 -13 34 -13 37 11 68 20 25 52 33 76 18z"/>
<path d="M892 454 c-12 -8 -22 -10 -22 -5 0 6 -7 11 -15 11 -12 0 -15 -14 -15
-62 0 -87 10 -138 26 -138 11 0 14 19 14 79 0 84 4 91 55 91 27 0 35 -18 44
-100 4 -40 10 -55 21 -55 12 0 15 12 14 56 -1 70 -9 103 -30 123 -20 20 -63
20 -92 0z"/>
</g>
</svg>
