<svg id="Layer_1" enable-background="new 0 0 500 500" height="512" viewBox="0 0 500 500" width="512" xmlns="http://www.w3.org/2000/svg"><g clip-rule="evenodd" fill-rule="evenodd"><path d="m100.042 53.515h221.384c1.296 0 2.352 1.057 2.352 2.352v277.788h-223.736c-18.613 0-33.842 15.229-33.842 33.842v-280.139c0-18.613 15.229-33.843 33.842-33.843z" fill="#e6e6e6"/><path d="m100.042 333.656h223.737v65.333c0 1.295-1.057 2.352-2.352 2.352h-221.385c-18.613 0-33.842-15.229-33.842-33.843 0-18.613 15.229-33.842 33.842-33.842z" fill="#b3b3b3"/><path d="m231.345 366.323h56.351v79.426c0 .31-.182.574-.471.685s-.601.037-.809-.193l-25.263-27.926c-.433-.479-.988-.725-1.633-.725s-1.201.246-1.633.725l-25.262 27.926c-.208.23-.52.304-.809.193s-.471-.376-.471-.685z" fill="#ffbf31"/><path d="m100.042 333.656v-280.141c-18.613 0-33.842 15.229-33.842 33.843v280.141c0-18.614 15.229-33.843 33.842-33.843z" fill="#ccc"/><ellipse cx="322.998" cy="193.585" fill="#88c8fe" rx="110.803" ry="110.803" transform="matrix(.707 -.707 .707 .707 -42.282 285.094)"/><path d="m421.48 142.758c-18.377 4.999-36.755 8.6-55.132 10.8 3.07 26.685 3.07 53.37 0 80.054 18.378 2.201 36.755 5.801 55.132 10.801 7.873-15.224 12.32-32.507 12.32-50.828s-4.447-35.603-12.32-50.827z" fill="#88c8fe"/><path d="m224.515 142.758c18.377 4.999 36.754 8.6 55.131 10.8 2.565-22.293 7.271-44.586 14.12-66.879-30.148 8.224-55.175 28.861-69.251 56.079z" fill="#42a5f5"/><path d="m293.767 86.68c-6.849 22.293-11.556 44.586-14.121 66.879 14.711 1.762 29.422 2.627 44.133 2.595 14.19-.031 28.38-.896 42.57-2.595-2.564-22.293-7.271-44.586-14.12-66.879-9.072-2.475-18.608-3.826-28.449-3.894-.26-.002-.521-.003-.781-.003-10.119 0-19.92 1.356-29.232 3.897z" fill="#4187b5"/><path d="m352.228 86.679c6.849 22.293 11.556 44.586 14.12 66.879 18.377-2.201 36.755-5.801 55.132-10.8-14.075-27.218-39.103-47.855-69.252-56.079z" fill="#60b7fe"/><path d="m366.349 233.613c3.07-26.685 3.07-53.37 0-80.054-14.19 1.699-28.38 2.564-42.57 2.595-14.711.032-29.422-.833-44.133-2.595-3.07 26.685-3.07 53.37 0 80.054 14.711-1.762 29.422-2.627 44.133-2.595 14.19.03 28.38.895 42.57 2.595z" fill="#42a5f5"/><path d="m279.646 233.613c-3.07-26.685-3.07-53.37 0-80.054-18.377-2.201-36.754-5.801-55.132-10.801-7.873 15.224-12.32 32.506-12.32 50.828 0 18.321 4.447 35.604 12.32 50.828 18.378-5 36.755-8.6 55.132-10.801z" fill="#88c8fe"/><path d="m279.646 233.613c-18.377 2.201-36.754 5.801-55.132 10.801 14.076 27.218 39.104 47.854 69.252 56.078-6.848-22.293-11.555-44.586-14.12-66.879z" fill="#42a5f5"/><path d="m279.646 233.613c2.564 22.293 7.271 44.586 14.121 66.879 9.312 2.54 19.113 3.896 29.23 3.896.261 0 .521-.001.781-.003 9.841-.068 19.377-1.419 28.449-3.893 6.849-22.293 11.556-44.586 14.12-66.88-14.19-1.699-28.38-2.564-42.57-2.595-14.709-.031-29.42.834-44.131 2.596z" fill="#4187b5"/><path d="m366.349 233.613c-2.564 22.293-7.271 44.586-14.12 66.879 30.149-8.224 55.176-28.861 69.253-56.079-18.379-4.999-36.756-8.599-55.133-10.8z" fill="#60b7fe"/><path d="m230.618 140.142c15.155 3.91 30.31 6.858 45.464 8.844 2.373-18.704 6.237-37.412 11.595-56.124-24.107 8.452-44.342 25.345-57.059 47.28zm53.583 9.816c2.53-19.969 6.798-39.933 12.803-59.891 17-4.255 34.986-4.256 51.986 0 6.005 19.958 10.273 39.922 12.803 59.891-25.871 2.804-51.72 2.804-77.592 0zm85.713-.972c15.154-1.986 30.308-4.934 45.464-8.844-12.718-21.936-32.952-38.827-57.058-47.28 5.356 18.713 9.221 37.42 11.594 56.124zm49.391-1.409c13.876 28.993 13.875 63.025 0 92.018-16.15-4.25-32.301-7.431-48.453-9.543 2.523-24.32 2.523-48.614 0-72.933 16.152-2.112 32.303-5.292 48.453-9.542zm-56.577 10.514c-26.493 2.876-52.968 2.876-79.461 0-2.439 23.661-2.439 47.329 0 70.99 26.494-2.876 52.967-2.876 79.461 0 2.439-23.663 2.439-47.327 0-70.99zm-87.585-.972c-2.524 24.318-2.523 48.616 0 72.933-16.152 2.112-32.303 5.293-48.452 9.543-13.876-28.994-13.877-63.025 0-92.019 16.149 4.251 32.3 7.432 48.452 9.543zm140.234 89.912c-15.156-3.91-30.31-6.858-45.464-8.845-2.373 18.704-6.237 37.412-11.594 56.124 24.105-8.452 44.342-25.344 57.058-47.279zm-53.583-9.817c-2.53 19.969-6.798 39.933-12.803 59.891-17 4.255-34.987 4.255-51.987 0-6.005-19.958-10.273-39.922-12.803-59.891 25.874-2.804 51.719-2.804 77.593 0zm-85.713.972c-15.153 1.986-30.308 4.934-45.463 8.845 12.716 21.934 32.954 38.828 57.058 47.279-5.358-18.712-9.222-37.42-11.595-56.124zm51.791-159.393c61.316 2.559 110.021 53.092 110.021 114.793s-48.706 112.233-110.021 114.793v90.611c0 3.554-2.913 6.446-6.446 6.446h-29.637v40.314c0 .978-.303 1.914-.85 2.718l.004.002c-1.717 2.5-5.382 2.899-7.549.507l-23.874-26.39-23.873 26.39c-.676.747-1.529 1.246-2.454 1.468l.001.004c-2.992.713-5.942-1.594-5.942-4.699v-40.314h-127.21c-20.873 0-37.936-17.063-37.936-37.936v-280.142c0-20.873 17.063-37.936 37.936-37.936h221.384c3.555 0 6.446 2.891 6.446 6.446zm-8.187 229.641v21.129h-215.55v-271.954h215.55v21.129c-62.007 1.756-111.584 52.584-111.584 114.848s49.577 113.092 111.584 114.848zm-27.896 61.982v26.832h27.896v-26.832zm-64.538 26.832v-26.832h-120.628c-5.389 0-5.389-8.187 0-8.187h213.063v-24.479h-219.644c-16.354 0-29.749 13.395-29.749 29.749s13.395 29.749 29.749 29.749zm8.187-26.832v26.832h48.164v-26.832zm0 35.019v31.621l19.426-21.475c2.53-2.798 6.811-2.765 9.311 0l19.426 21.475v-31.621zm-139.489-75.65v-271.892c-14.52 2.023-25.655 14.583-25.655 29.466v256.663c6.204-7.837 15.358-13.121 25.655-14.237z"/></g></svg>