<?xml version="1.0" encoding="UTF-8"?>
<svg xmlns="http://www.w3.org/2000/svg" xmlns:xlink="http://www.w3.org/1999/xlink" version="1.1" id="Capa_1" x="0px" y="0px" viewBox="0 0 511.941 511.941" style="enable-background:new 0 0 511.941 511.941;" xml:space="preserve" width="512" height="512">
<g>
	<path style="fill:#7DCE5C;" d="M391.99,466.493H259.83c-7.888,0-14.308-5.515-15.065-12.64c-0.005-0.045-0.01-0.09-0.015-0.135&#10;&#9;&#9;c-1.606-14.443-14.906-26.072-31.368-27.392c-4.369-0.351-8.589,0.012-12.528,0.967c-5.178,1.256-10.643-1.209-12.626-5.591&#10;&#9;&#9;c-8.013-17.704-27.694-30.223-50.716-30.223c-22.636,0-42.042,12.102-50.303,29.337c-2.328,4.857-8.273,7.476-14.106,6.235&#10;&#9;&#9;c-21.849-4.647-42.047,9.747-42.964,28.36c-0.293,5.942-4.414,11.109-10.585,13.566c-20.813,8.286-12.834,35.444,9.568,35.444&#10;&#9;&#9;l363.386,0c12.192,0,22.025-8.867,21.587-19.655C413.679,474.488,403.703,466.493,391.99,466.493z"/>
	<path style="fill:#FFCBBE;" d="M302.118,252.141l-45.645-26.353l92.87-160.855c7.277-12.604,23.394-16.923,35.999-9.646l0,0&#10;&#9;&#9;c12.604,7.277,16.923,23.394,9.646,35.999L302.118,252.141z"/>
	<path style="fill:#FFCBBE;" d="M174.272,430.67L174.272,430.67c-14.067-3.736-22.442-18.167-18.706-32.234l47.674-179.517&#10;&#9;&#9;l50.94,13.528l-47.674,179.517C202.77,426.031,188.339,434.406,174.272,430.67z"/>
	<path style="fill:#7FB0E4;" d="M481.849,451.751c0,11.75-6.91,22.91-18.41,27.76c-15.32,6.48-32.99-0.7-39.46-16.02l-21.91-51.86&#10;&#9;&#9;l-19.32-45.72c-3.542-8.131-12.672-9.381-18.14-4.58c-2.2,1.93-4.42,3.76-6.67,5.5c-4.72,3.66-9.53,6.89-14.37,9.68&#10;&#9;&#9;c0,0-3.5-0.04-8.93-0.77c-21.22-2.85-71.99-16.2-59.1-78.73c4.68-7.91,10.42-15.71,17.15-23.12&#10;&#9;&#9;c43.145-47.48,104.083-53.818,114.54-9.21c1.4,5.96,3.14,11.84,5.52,17.47C483.652,449.951,481.849,443.085,481.849,451.751z"/>
	<path style="fill:#4F96D9;" d="M343.569,376.511c-6.68,3.86-13.42,6.87-20.02,9.01c-2.71,0.88-4.97,2.8-6.35,5.3l-42.12,76.21&#10;&#9;&#9;c-5.5,9.94-15.78,15.55-26.39,15.55c-4.93,0-9.92-1.21-14.54-3.76c-14.56-8.05-19.84-26.37-11.79-40.93l0.67-1.22l40.16-72.66&#10;&#9;&#9;c-6.47-18.05-1.87-43.03,12.35-67c13.27,26.02,33.49,52.29,63.78,76.2C340.719,374.321,342.129,375.421,343.569,376.511z"/>
	<path style="fill:#A4E7FF;" d="M387.698,282.151l-67.19,67.19c0,0-138.65-18.14-59.62-176.57l8.71-6.77l13.06,7.46l23.04-39.91&#10;&#9;&#9;c2.78-4.82,8.97-6.44,13.76-3.6l34.17,20.27c4.71,2.79,6.3,8.86,3.56,13.6l-17.37,30.09c-2.93,5.07-1.18,11.54,3.9,14.44&#10;&#9;&#9;l36.92,21.11C399.798,240.401,403.298,266.561,387.698,282.151z"/>
	<path style="fill:#5AD6FF;" d="M320.508,349.341l-5.19,5.19c-16.43,16.44-43.07,16.44-59.5,0l-8.65-12&#10;&#9;&#9;c-5.2-7.23-16.47-5.16-18.76,3.45l-0.17,0.66c-1.43,5.38-6.99,8.56-12.35,7.06l-39.7-11.05c-5.27-1.47-8.38-6.91-6.98-12.2&#10;&#9;&#9;l18.67-70.3l-14.12-19.61l24.36-18.95l13.27-10.32l49.5-38.5C256.618,213.901,260.178,286.341,320.508,349.341z"/>
	<path style="fill:#FFCBBE;" d="M287.328,270.651c-3.67,3.67-7.92,6.42-12.44,8.26c0,0-45.58-21.61-15.08-72.53&#10;&#9;&#9;c9.93-0.23,19.94,3.44,27.52,11.02C302.028,232.111,302.028,255.941,287.328,270.651z"/>
	<path style="fill:#FFBBAE;" d="M274.888,278.911c-13.6,5.52-29.77,2.77-40.81-8.26c-14.7-14.71-14.7-38.54,0-53.25&#10;&#9;&#9;c7.12-7.12,16.39-10.8,25.73-11.02C260.648,227.921,264.618,252.991,274.888,278.911z"/>
	
		<ellipse transform="matrix(0.9939 -0.1101 0.1101 0.9939 -8.5887 29.0343)" style="fill:#FFCBBE;" cx="258.535" cy="92.266" rx="36.687" ry="36.687"/>
	
		<ellipse transform="matrix(0.7071 -0.7071 0.7071 0.7071 -152.6967 120.8213)" style="fill:#FFDDCF;" cx="69.496" cy="244.732" rx="36.687" ry="36.687"/>
	<path style="fill:#FFDDCF;" d="M242.068,265.281c-19.55,15.77-42.19,25.02-65.18,28c-203.36-38.81-75.85-230.43-74.73-232.1&#10;&#9;&#9;c0.01-0.01,0.01-0.01,0.01-0.01c53.57-31.65,122.63-21.2,161.66,27.19c10.47,12.99,17.81,27.51,22.14,42.68&#10;&#9;&#9;C299.408,178.191,283.708,231.701,242.068,265.281z"/>
	<path style="fill:#FFCBBE;" d="M176.888,293.281c-25.96,3.37-52.37-1.26-75.3-13.53c-13.92-7.44-26.55-17.69-37.03-30.67&#10;&#9;&#9;c-43.01-53.33-33.27-132.53,21.76-176.92c5.09-4.1,10.39-7.77,15.85-10.99C83.298,134.871,76.258,243.931,176.888,293.281z"/>
	<path style="fill:#6B7D8E;" d="M228.158,64.551c-16.7,7.49-41.3,14.27-73.75,12.28c-9.09-0.55-17.57,5.33-20.45,14.04&#10;&#9;&#9;c-9.87,29.78-25.6,55.71-42,76.92c-58.78-79.2,26.86-158.46,26.86-158.46c26.55-5.17,46.64,2.21,53.41,3.81&#10;&#9;&#9;c23.195,5.488,45.52,17.069,59.95,36.04C236.138,54.371,234.108,61.881,228.158,64.551z"/>
	<path style="fill:#546370;" d="M91.958,167.791c-14.86,19.24-30.27,34.6-42.36,45.41c-4.14,3.7-10.49,3.44-14.24-0.65&#10;&#9;&#9;c-44.735-48.842-30.32-127.408,25.27-172.24c0.46-0.37,0.94-0.71,1.37-1.1c20.38-18.21,39.91-26.59,56.82-29.88&#10;&#9;&#9;C106.098,42.121,85.688,106.301,91.958,167.791z"/>
	
		<ellipse transform="matrix(0.7784 -0.6278 0.6278 0.7784 -117.0012 122.6759)" style="fill:#FFA1AC;" cx="115.254" cy="227.055" rx="27.03" ry="21.525"/>
	
		<ellipse transform="matrix(0.7784 -0.6278 0.6278 0.7784 -33.9831 173.8856)" style="fill:#FFA1AC;" cx="229.297" cy="135.076" rx="27.03" ry="21.525"/>
	
		<ellipse transform="matrix(0.7784 -0.6278 0.6278 0.7784 -72.3227 143.1409)" style="fill:#333941;" cx="166.584" cy="174.009" rx="10.783" ry="11.5"/>
	<path style="fill:#BBE5A7;" d="M504.431,486.75c-0.34,9.93-8.8,17.67-18.74,17.67h-338.93c-9.96,0-18.46-7.75-18.78-17.7&#10;&#9;&#9;c-0.34-10.39,7.99-19.95,18.3-19.95h164.05c6.8,0,12.38-8.08,12.97-14.85c0.01-0.11,0.01-0.21,0.02-0.32&#10;&#9;&#9;c1.37-13.94,12.64-25.16,26.6-26.44c6.33-0.58,12.29,0.87,17.32,3.74c7.76-13.32,22.46-22.32,39.32-22.32&#10;&#9;&#9;c16.12,0,30.26,8.22,38.26,20.59c4.17-1.68,8.8-2.45,13.67-2.02c13.97,1.25,25.27,12.46,26.66,26.41c0.19,2,0.19,7.82,0,9.73&#10;&#9;&#9;c-0.35,3.6,1.82,6.96,5.23,8.16C496.561,471.631,504.781,476.461,504.431,486.75z"/>
	<path style="fill:#9CDA82;" d="M297.771,504.421h-151.01c-9.96,0-18.46-7.75-18.78-17.7c-0.34-10.39,7.99-19.95,18.3-19.95h147.27&#10;&#9;&#9;C290.361,478.5,289.091,493.41,297.771,504.421z"/>
</g>
<g>
	
		<polyline style="fill:none;stroke:#000000;stroke-width:15;stroke-linecap:round;stroke-linejoin:round;stroke-miterlimit:10;" points="&#10;&#9;&#9;275.381,466.491 275.811,466.491 312.491,466.491 &#9;"/>
	<path style="fill:none;stroke:#000000;stroke-width:15;stroke-linecap:round;stroke-linejoin:round;stroke-miterlimit:10;" d="&#10;&#9;&#9;M392.491,504.421h-245.73H29.101c-11.64,0-21.3-8.11-21.59-18.32c-0.28-9.76,5.84-14.67,12.02-17.13&#10;&#9;&#9;c6.17-2.45,10.3-7.62,10.59-13.56c0.03-0.58,0.07-1.15,0.14-1.74c1.63-14.45,14.97-26.06,31.44-27.35&#10;&#9;&#9;c3.95-0.31,7.78-0.04,11.38,0.73c5.84,1.24,11.78-1.38,14.11-6.24c8.26-17.23,27.66-29.33,50.3-29.33c6.22,0,12.2,0.92,17.77,2.61"/>
	<path style="fill:none;stroke:#000000;stroke-width:15;stroke-linecap:round;stroke-linejoin:round;stroke-miterlimit:10;" d="&#10;&#9;&#9;M194.361,427.011c0.94,0.32,1.94,0.52,2.96,0.58c1.15,0.08,2.34-0.01,3.51-0.3c2.48-0.6,5.07-0.97,7.74-1.07&#10;&#9;&#9;c1.57-0.06,3.17-0.03,4.79,0.1c4.81,0.39,9.35,1.65,13.4,3.62"/>
	<path style="fill:none;stroke:#000000;stroke-width:15;stroke-linecap:round;stroke-linejoin:round;stroke-miterlimit:10;" d="&#10;&#9;&#9;M311.061,128.731l36.83-63.8c7.27-12.6,23.39-16.92,36-9.64c8.45,4.88,13.18,13.73,13.18,22.84c0,4.47-1.14,9.01-3.54,13.16&#10;&#9;&#9;l-37.05,64.16"/>
	<path style="fill:none;stroke:#000000;stroke-width:15;stroke-linecap:round;stroke-linejoin:round;stroke-miterlimit:10;" d="&#10;&#9;&#9;M169.771,339.461l-15.66,58.97c-3.74,14.07,4.64,28.5,18.7,32.24c14.07,3.73,28.5-4.64,32.24-18.71l15.54-58.52"/>
	<path style="fill:none;stroke:#000000;stroke-width:15;stroke-linecap:round;stroke-linejoin:round;stroke-miterlimit:10;" d="&#10;&#9;&#9;M400.121,407.021l-17.53-41.5c-3.02-7.14-12.16-9.3-17.98-4.19c-11.21,9.87-23.24,17.3-35.01,22c-2.02,0.81-4.04,1.54-6.04,2.19&#10;&#9;&#9;c-2.72,0.88-4.97,2.8-6.35,5.3l-41.83,75.67l-0.16,0.28"/>
	<path style="fill:none;stroke:#000000;stroke-width:15;stroke-linecap:round;stroke-linejoin:round;stroke-miterlimit:10;" d="&#10;&#9;&#9;M262.161,360.681v0.01c0.3,1.14,0.65,2.24,1.04,3.32l-36.44,65.93l-4.4,7.95c-5.14,9.31-4.84,20.17-0.13,28.88"/>
	
		<line style="fill:none;stroke:#000000;stroke-width:15;stroke-linecap:round;stroke-linejoin:round;stroke-miterlimit:10;" x1="452.051" y1="375.146" x2="476.901" y2="433.961"/>
	<path style="fill:none;stroke:#000000;stroke-width:15;stroke-linecap:round;stroke-linejoin:round;stroke-miterlimit:10;" d="&#10;&#9;&#9;M390.991,240.791c1.68,1.07,3.27,2.29,4.77,3.65c5.81,5.28,9.59,12.22,11.48,20.24c1.39,5.96,3.13,11.84,5.52,17.47l27.073,64.079"/>
	<path style="fill:none;stroke:#000000;stroke-width:15;stroke-linecap:round;stroke-linejoin:round;stroke-miterlimit:10;" d="&#10;&#9;&#9;M289.101,159.781l15.14-26.23c2.79-4.82,8.97-6.44,13.76-3.6l34.18,20.27c4.71,2.79,6.29,8.86,3.55,13.6l-17.37,30.09&#10;&#9;&#9;c-2.93,5.07-1.18,11.54,3.9,14.44l36.93,21.11c19.15,10.94,22.65,37.1,7.05,52.69l-72.38,72.38c-16.43,16.44-43.07,16.44-59.5,0&#10;&#9;&#9;l-8.64-12c-5.21-7.23-16.48-5.16-18.77,3.45l-0.17,0.66c-1.43,5.38-6.98,8.56-12.35,7.06l-39.69-11.05&#10;&#9;&#9;c-5.28-1.47-8.39-6.91-6.99-12.2l9.95-37.48"/>
	<path style="fill:none;stroke:#000000;stroke-width:15;stroke-linecap:round;stroke-linejoin:round;stroke-miterlimit:10;" d="&#10;&#9;&#9;M279.871,212.521c2.12,1.39,4.13,3.02,6,4.88c14.7,14.71,14.7,38.54,0,53.25c-14.59,14.58-38.16,14.7-52.88,0.34"/>
	<path style="fill:none;stroke:#000000;stroke-width:15;stroke-linecap:round;stroke-linejoin:round;stroke-miterlimit:10;" d="&#10;&#9;&#9;M280.861,120.201c15.1-12.84,17.29-35.45,4.77-50.97c-12.55-15.56-35.21-18.17-50.96-6"/>
	<path style="fill:none;stroke:#000000;stroke-width:15;stroke-linecap:round;stroke-linejoin:round;stroke-miterlimit:10;" d="&#10;&#9;&#9;M90.301,273.881c-15.74,12.05-38.31,9.4-50.82-6.12c-12.55-15.56-10.3-38.27,4.92-51.08"/>
	<path style="fill:none;stroke:#000000;stroke-width:15;stroke-linecap:round;stroke-linejoin:round;stroke-miterlimit:10;" d="&#10;&#9;&#9;M232.431,61.791c11.13,6.95,21.27,15.83,29.94,26.57c10.47,12.99,17.81,27.51,22.14,42.68c13.44,47.15-2.26,100.66-43.89,134.24&#10;&#9;&#9;c-41.64,33.58-97.26,37.6-140.49,14.47c-13.92-7.44-26.55-17.69-37.02-30.67c-8.12-10.06-14.36-21.04-18.77-32.54"/>
	<path style="fill:none;stroke:#000000;stroke-width:15;stroke-linecap:round;stroke-linejoin:round;stroke-miterlimit:10;" d="&#10;&#9;&#9;M75.102,27.697c46.266-32.021,85.62-16.931,95.67-14.553c22.36,5.291,44.18,16.424,58.279,33.906"/>
	<path style="fill:none;stroke:#000000;stroke-width:15;stroke-linecap:round;stroke-linejoin:round;stroke-miterlimit:10;" d="&#10;&#9;&#9;M229.051,47.05c0.031,0.039,0.062,0.077,0.093,0.116c4.933,6.136,2.515,15.297-4.729,18.382&#10;&#9;&#9;c-16.633,7.084-40.461,13.188-71.464,11.288c-9.088-0.557-17.568,5.324-20.453,14.033c-18.48,55.774-57.508,98.043-82.972,121.081&#10;&#9;&#9;c-4.956,4.483-12.613,4.063-17.024-0.958c-0.925-1.052-1.831-2.128-2.717-3.228C-6.791,162.415,2.808,93.184,50.136,48.219"/>
	<path style="fill:none;stroke:#000000;stroke-width:15;stroke-linecap:round;stroke-linejoin:round;stroke-miterlimit:10;" d="&#10;&#9;&#9;M97.561,204.046c5.082,0.9,10.511-0.315,14.844-3.81c4.333-3.495,6.67-8.543,6.867-13.701"/>
	<path style="fill:none;stroke:#000000;stroke-width:15;stroke-linecap:round;stroke-linejoin:round;stroke-miterlimit:10;" d="&#10;&#9;&#9;M208.791,114.335c-0.197,5.158-2.534,10.206-6.867,13.701c-4.333,3.495-9.762,4.71-14.844,3.81"/>
	<path style="fill:none;stroke:#000000;stroke-width:15;stroke-linecap:round;stroke-linejoin:round;stroke-miterlimit:10;" d="&#10;&#9;&#9;M490.384,469.453c-3.418-1.203-5.587-4.561-5.232-8.167c0.188-1.903,0.193-7.728-0.005-9.723&#10;&#9;&#9;c-1.385-13.95-12.689-25.165-26.658-26.409c-4.866-0.433-9.5,0.341-13.673,2.02c-7.995-12.369-22.135-20.595-38.257-20.595&#10;&#9;&#9;c-16.861,0-31.555,8.997-39.317,22.323c-5.037-2.869-10.99-4.32-17.324-3.741c-13.956,1.275-25.231,12.501-26.593,26.443&#10;&#9;&#9;c-0.01,0.104-0.02,0.209-0.029,0.313c-0.591,6.775-6.165,14.854-12.969,14.854H146.284c-10.317,0-18.641,9.56-18.303,19.952&#10;&#9;&#9;c0.324,9.95,8.821,17.695,18.776,17.695h338.932c9.94,0,18.401-7.736,18.741-17.67&#10;&#9;&#9;C504.783,476.461,496.565,471.628,490.384,469.453z"/>
	<ellipse transform="matrix(0.7784 -0.6278 0.6278 0.7784 -72.6454 142.2266)" cx="165.128" cy="174.008" rx="10.783" ry="11.5"/>
</g>















</svg>
