<?xml version="1.0" encoding="iso-8859-1"?>
<!-- Generator: Adobe Illustrator 19.0.0, SVG Export Plug-In . SVG Version: 6.00 Build 0)  -->
<svg version="1.1" id="Layer_1" xmlns="http://www.w3.org/2000/svg" xmlns:xlink="http://www.w3.org/1999/xlink" x="0px" y="0px"
	 viewBox="0 0 512 512" style="enable-background:new 0 0 512 512;" xml:space="preserve">
<path style="fill:#DCEAE9;" d="M333.093,373.125c8.408,2.214,14.266,9.95,14.266,18.785v42.699H164.641V391.91
	c0-8.835,5.858-16.572,14.266-18.785c16.333-4.3,45.005-10.347,77.093-10.347S316.761,368.825,333.093,373.125z"/>
<path style="fill:#FFD87C;" d="M164.641,504.5V391.91c0-8.835,5.858-16.572,14.266-18.785c12.321-3.244,31.667-7.48,54.201-9.367
	L256,387.045l22.892-23.287c22.535,1.886,41.88,6.123,54.201,9.367c8.408,2.214,14.266,9.95,14.266,18.785V504.5H164.641z"/>
<path style="fill:#FFC561;" d="M347.359,391.91V504.5H307.53V367.516c10.172,1.807,18.897,3.853,25.564,5.609
	C341.501,375.339,347.359,383.075,347.359,391.91z M164.641,391.91V504.5h37.921V367.862c-9.355,1.719-17.41,3.619-23.655,5.263
	C170.499,375.339,164.641,383.075,164.641,391.91z"/>
<path style="fill:#FFB356;" d="M347.359,391.91V504.5h-15.974V372.683c0.576,0.148,1.16,0.297,1.708,0.441
	C341.501,375.339,347.359,383.075,347.359,391.91z M186.588,504.5h15.973V367.862c-5.881,1.081-11.247,2.233-15.973,3.348
	L186.588,504.5L186.588,504.5z"/>
<path style="fill:#FFEF9F;" d="M289.399,294.828c0,18.764-14.953,33.975-33.399,33.975s-33.399-15.211-33.399-33.975
	s14.953-33.975,33.399-33.975S289.399,276.064,289.399,294.828z"/>
<path style="fill:#FFDB93;" d="M289.399,294.828c0,18.764-14.953,33.975-33.399,33.975c-2.628,0-5.181-0.319-7.634-0.902
	c14.765-3.514,25.765-16.982,25.765-33.072s-11-29.559-25.765-33.072c2.453-0.584,5.006-0.902,7.634-0.902
	C274.446,260.854,289.399,276.064,289.399,294.828z"/>
<path style="fill:#FFCCCC;" d="M504.5,80.303c0,40.208-32.595,72.803-72.803,72.803s-72.803-32.595-72.803-72.803
	S391.489,7.5,431.697,7.5S504.5,40.095,504.5,80.303z"/>
<path style="fill:#FFB2B0;" d="M504.5,80.303c0,40.208-32.595,72.803-72.803,72.803c-3.628,0-7.192-0.274-10.678-0.787
	c35.144-5.167,62.125-35.436,62.125-72.016s-26.98-66.849-62.125-72.016c3.486-0.512,7.049-0.787,10.678-0.787
	C471.905,7.5,504.5,40.095,504.5,80.303z"/>
<path style="fill:#FF7C6F;" d="M466.017,52.258L466.017,52.258c7.582,7.582,7.582,19.874,0,27.456l-34.32,34.32l-13.728-13.728l0,0
	l-20.592-20.592c-7.582-7.582-7.582-19.874,0-27.456s19.874-7.582,27.456,0l6.864,6.864l6.864-6.864
	C446.143,44.677,458.435,44.677,466.017,52.258z"/>
<path style="fill:#FF9C97;" d="M442.593,83.147l-20.891,20.891l-3.733-3.733l-20.592-20.592c-7.582-7.582-7.582-19.874,0-27.456
	s19.874-7.582,27.456,0l6.864,6.864l6.864-6.864c3.967-3.967,9.224-5.838,14.421-5.653
	C455.964,59.318,452.505,73.235,442.593,83.147z"/>
<path style="fill:#D5F7F4;" d="M328.803,80.303c0,40.208-32.595,72.803-72.803,72.803s-72.803-32.595-72.803-72.803
	S215.792,7.5,256,7.5S328.803,40.095,328.803,80.303z"/>
<path style="fill:#C5D3D2;" d="M289.974,80.303c0,18.764-15.211,33.975-33.975,33.975s-33.975-15.211-33.975-33.975
	S237.236,46.328,256,46.328S289.974,61.539,289.974,80.303z"/>
<path style="fill:#B8F4F2;" d="M328.803,80.303c0,40.208-32.595,72.803-72.803,72.803c-3.628,0-7.192-0.274-10.678-0.787
	c35.144-5.167,62.125-35.436,62.125-72.016s-26.98-66.849-62.125-72.016C248.808,7.774,252.372,7.5,256,7.5
	C296.208,7.5,328.803,40.095,328.803,80.303z"/>
<path style="fill:#FFF261;" d="M153.105,80.303c0,40.208-32.595,72.803-72.803,72.803S7.5,120.511,7.5,80.303S40.095,7.5,80.303,7.5
	S153.105,40.095,153.105,80.303z"/>
<path style="fill:#FFDE52;" d="M153.105,80.303c0,40.208-32.595,72.803-72.803,72.803c-3.628,0-7.192-0.274-10.678-0.787
	c35.144-5.167,62.125-35.436,62.125-72.016s-26.98-66.849-62.125-72.016C73.111,7.774,76.674,7.5,80.303,7.5
	C120.511,7.5,153.105,40.095,153.105,80.303z"/>
<path style="fill:#FFFFFF;" d="M113.927,85.156c-2.356,16.464-16.509,29.121-33.624,29.121S49.035,101.62,46.679,85.156H113.927z"/>
<path d="M297.242,294.98c0-22.943-18.501-41.608-41.242-41.608s-41.242,18.665-41.242,41.608s18.501,41.608,41.242,41.608
	S297.242,317.923,297.242,294.98z M229.758,294.98c0-14.672,11.772-26.608,26.242-26.608s26.242,11.936,26.242,26.608
	S270.47,321.588,256,321.588S229.758,309.652,229.758,294.98z M355.797,392.443V504.5c0,4.142-3.358,7.5-7.5,7.5H230.762
	c-4.142,0-7.5-3.358-7.5-7.5s3.358-7.5,7.5-7.5h69.797v-70.461c0-4.142,3.358-7.5,7.5-7.5s7.5,3.358,7.5,7.5V497h25.238V392.443
	c0-5.475-3.623-10.246-8.811-11.603c-14.479-3.788-43.604-10.143-75.987-10.143s-61.508,6.355-75.987,10.143
	c-5.188,1.357-8.811,6.128-8.811,11.603V497h23.311v-70.461c0-4.142,3.358-7.5,7.5-7.5s7.5,3.358,7.5,7.5V504.5
	c0,4.142-3.358,7.5-7.5,7.5h-38.311c-4.142,0-7.5-3.358-7.5-7.5V392.443c0-12.292,8.23-23.031,20.014-26.115
	c18.539-4.85,47.428-10.631,79.784-10.631s61.245,5.781,79.784,10.631C347.567,369.412,355.797,380.15,355.797,392.443z
	 M57.271,56.226c0-4.142,3.358-7.5,7.5-7.5h1.941c4.142,0,7.5,3.358,7.5,7.5s-3.358,7.5-7.5,7.5h-1.941
	C60.629,63.726,57.271,60.368,57.271,56.226z M86.393,56.226c0-4.142,3.358-7.5,7.5-7.5h1.941c4.142,0,7.5,3.358,7.5,7.5
	s-3.358,7.5-7.5,7.5h-1.941C89.75,63.726,86.393,60.368,86.393,56.226z M160.605,80.588C160.605,36.152,124.582,0,80.303,0
	S0,36.152,0,80.588s36.023,80.588,80.303,80.588S160.605,125.025,160.605,80.588z M15,80.588C15,44.423,44.295,15,80.303,15
	s65.303,29.423,65.303,65.588s-29.295,65.588-65.303,65.588S15,116.754,15,80.588z M256,161.176
	c44.279,0,80.303-36.151,80.303-80.588S300.279,0,256,0s-80.303,36.152-80.303,80.588S211.721,161.176,256,161.176z M256,15
	c36.008,0,65.303,29.423,65.303,65.588S292.008,146.176,256,146.176s-65.303-29.422-65.303-65.588S219.992,15,256,15z M431.697,0
	c-44.279,0-80.303,36.152-80.303,80.588s36.023,80.588,80.303,80.588S512,125.025,512,80.588S475.977,0,431.697,0z M431.697,146.176
	c-36.008,0-65.303-29.422-65.303-65.588S395.689,15,431.697,15S497,44.423,497,80.588S467.705,146.176,431.697,146.176z
	 M422.695,182.912v29.235c0,4.142-3.358,7.5-7.5,7.5H263.5v11.99c0,4.142-3.358,7.5-7.5,7.5s-7.5-3.358-7.5-7.5v-11.99H85.156
	c-4.142,0-7.5-3.358-7.5-7.5v-29.235c0-4.142,3.358-7.5,7.5-7.5s7.5,3.358,7.5,7.5v21.735H248.5v-21.735c0-4.142,3.358-7.5,7.5-7.5
	s7.5,3.358,7.5,7.5v21.735h144.195v-21.735c0-4.142,3.358-7.5,7.5-7.5S422.695,178.77,422.695,182.912z M471.33,47.141
	c-5.084-5.104-11.846-7.916-19.041-7.916l0,0c-7.194,0-13.957,2.812-19.042,7.916l0,0l-1.55,1.556l-1.55-1.556
	c-5.085-5.104-11.847-7.916-19.042-7.916c-7.194,0-13.957,2.811-19.041,7.916c-10.477,10.518-10.477,27.632,0,38.149l34.319,34.454
	c1.407,1.413,3.319,2.207,5.313,2.207s3.906-0.794,5.313-2.207L471.33,85.29C481.807,74.772,481.807,57.659,471.33,47.141z
	 M460.703,74.704l-29.006,29.12l-29.006-29.12c-4.663-4.681-4.663-12.297,0-16.978c2.249-2.258,5.237-3.501,8.414-3.501
	s6.165,1.244,8.414,3.501l6.864,6.891c1.408,1.413,3.32,2.207,5.314,2.207s3.906-0.794,5.314-2.207l6.863-6.891
	c2.25-2.258,5.238-3.501,8.415-3.501s6.165,1.244,8.414,3.501C465.366,62.407,465.366,70.023,460.703,74.704z M248.5,81.563v-1.949
	c0-4.142,3.358-7.5,7.5-7.5s7.5,3.358,7.5,7.5v1.949c0,4.142-3.358,7.5-7.5,7.5S248.5,85.705,248.5,81.563z M215.213,88.088
	c0.405,2.223,0.981,4.386,1.725,6.472l-2.528,1.466c-3.584,2.077-4.805,6.666-2.728,10.25c1.391,2.4,3.908,3.741,6.496,3.741
	c1.276,0,2.57-0.327,3.754-1.013l2.514-1.457c1.438,1.691,3.007,3.265,4.693,4.707l-1.481,2.574
	c-2.065,3.59-0.828,8.175,2.762,10.24c1.179,0.678,2.464,1,3.732,1c2.596,0,5.121-1.35,6.508-3.763l1.447-2.517
	c2.061,0.737,4.197,1.31,6.392,1.714v2.94c0,4.142,3.358,7.5,7.5,7.5s7.5-3.358,7.5-7.5v-2.94c2.195-0.404,4.331-0.977,6.392-1.714
	l1.447,2.517c1.387,2.413,3.912,3.763,6.508,3.763c1.268,0,2.554-0.322,3.732-1c3.59-2.065,4.827-6.65,2.762-10.24l-1.481-2.574
	c1.686-1.442,3.255-3.016,4.693-4.707l2.514,1.457c1.184,0.687,2.477,1.013,3.754,1.013c2.587,0,5.105-1.341,6.496-3.741
	c2.077-3.583,0.856-8.172-2.728-10.25l-2.528-1.466c0.743-2.086,1.32-4.249,1.725-6.472h2.895c4.142,0,7.5-3.358,7.5-7.5
	s-3.358-7.5-7.5-7.5h-2.895c-0.405-2.223-0.981-4.387-1.725-6.472l2.529-1.466c3.584-2.077,4.805-6.666,2.728-10.25
	s-6.667-4.805-10.25-2.728l-2.515,1.457c-1.438-1.691-3.007-3.265-4.693-4.706l1.481-2.575c2.065-3.59,0.828-8.175-2.762-10.24
	c-3.591-2.064-8.176-0.829-10.241,2.763l-1.448,2.517c-2.06-0.737-4.197-1.31-6.392-1.714v-2.94c0-4.142-3.358-7.5-7.5-7.5
	s-7.5,3.358-7.5,7.5v2.94c-2.195,0.404-4.331,0.977-6.392,1.714l-1.448-2.517c-2.065-3.59-6.649-4.828-10.241-2.763
	c-3.59,2.065-4.827,6.65-2.762,10.24l1.481,2.575c-1.686,1.442-3.255,3.015-4.693,4.706l-2.515-1.457
	c-3.583-2.077-8.172-0.856-10.25,2.728c-2.077,3.583-0.856,8.172,2.728,10.25l2.529,1.466c-0.744,2.086-1.32,4.249-1.725,6.472
	h-2.895c-4.142,0-7.5,3.358-7.5,7.5s3.358,7.5,7.5,7.5C212.314,88.088,215.213,88.088,215.213,88.088z M256,53.98
	c14.598,0,26.475,11.936,26.475,26.608S270.598,107.196,256,107.196s-26.475-11.936-26.475-26.608S241.402,53.98,256,53.98z
	 M121.352,86.52c0.307-2.152-0.335-4.332-1.76-5.974c-1.424-1.642-3.491-2.585-5.665-2.585H46.679c-2.174,0-4.241,0.943-5.665,2.585
	c-1.425,1.642-2.067,3.821-1.76,5.974c2.899,20.339,20.546,35.677,41.049,35.677S118.453,106.858,121.352,86.52z M56.876,92.961
	h46.853c-4.482,8.506-13.422,14.235-23.426,14.235S61.359,101.467,56.876,92.961z"/>
<g>
</g>
<g>
</g>
<g>
</g>
<g>
</g>
<g>
</g>
<g>
</g>
<g>
</g>
<g>
</g>
<g>
</g>
<g>
</g>
<g>
</g>
<g>
</g>
<g>
</g>
<g>
</g>
<g>
</g>
</svg>
