<svg id="Capa_1" enable-background="new 0 0 516.902 516.902" height="512" viewBox="0 0 516.902 516.902" width="512" xmlns="http://www.w3.org/2000/svg"><g><path d="m35.433 8.337h446.036c14.964 0 27.096 12.131 27.096 27.096v306.607c0 14.965-12.131 27.096-27.096 27.096h-446.036c-14.965 0-27.096-12.131-27.096-27.096v-306.607c0-14.965 12.131-27.096 27.096-27.096z" fill="#5f9549"/><path d="m481.469 377.475h-446.036c-19.561-.021-35.413-15.872-35.433-35.433v-306.609c.022-19.56 15.873-35.411 35.433-35.433h446.036c19.56.022 35.411 15.873 35.433 35.433v306.609c-.021 19.561-15.872 35.412-35.433 35.433zm-446.036-360.801c-10.355.013-18.746 8.404-18.759 18.759v306.609c.014 10.354 8.404 18.744 18.759 18.759h446.036c10.354-.014 18.744-8.404 18.759-18.759v-306.609c-.013-10.355-8.404-18.746-18.759-18.759z"/><path d="m218.101 88.582h-109.718c-4.604 0-8.337-3.733-8.337-8.337s3.733-8.337 8.337-8.337h109.718c4.604 0 8.337 3.733 8.337 8.337s-3.733 8.337-8.337 8.337z"/><path d="m408.519 88.582h-109.718c-4.604 0-8.337-3.733-8.337-8.337s3.733-8.337 8.337-8.337h109.718c4.604 0 8.337 3.733 8.337 8.337s-3.732 8.337-8.337 8.337z"/><path d="m163.242 150.361h-54.859c-4.604 0-8.337-3.733-8.337-8.337s3.733-8.337 8.337-8.337h54.859c4.604 0 8.337 3.733 8.337 8.337s-3.733 8.337-8.337 8.337z"/><path d="m354.995 150.361h-54.859c-4.604 0-8.337-3.733-8.337-8.337s3.733-8.337 8.337-8.337h54.859c4.604 0 8.337 3.733 8.337 8.337s-3.732 8.337-8.337 8.337z"/><path d="m432.114 265.871s-38.185.417-48.606-34.015c-27.096 47.938-89.874 34.015-89.874 34.015.049-38.24 31.088-69.201 69.329-69.152 38.171.049 69.102 30.981 69.151 69.152z" fill="#7b4229"/><path d="m314.499 276.159c-7.611.049-15.208-.671-22.675-2.149-3.815-.847-6.529-4.23-6.53-8.138.047-42.845 34.818-77.54 77.663-77.493 42.779.047 77.447 34.714 77.493 77.493 0 4.569-3.679 8.286-8.248 8.333-.155.008-.309.008-.464.008-19.736-.117-38.213-9.711-49.664-25.785-17.351 18.73-42.068 28.873-67.575 27.731zm-12.124-17.341c15.958 1.844 54.908 2.487 73.878-31.065 2.263-4.007 7.346-5.422 11.353-3.159 1.87 1.056 3.26 2.793 3.88 4.848 4.571 14.247 16.784 24.699 31.565 27.014-5.23-33.234-36.411-55.937-69.645-50.707-26.984 4.247-47.843 25.938-51.031 53.069z"/><path d="m180.29 317.853-49.846 22.549-24.039-57.242c-1.442-3.409-2.187-7.071-2.191-10.773.002-15.11 12.252-27.358 27.363-27.357 11.016.001 20.957 6.609 25.223 16.766z" fill="#feb683"/><path d="m130.447 348.743c-3.355-.003-6.382-2.014-7.686-5.105l-24.043-57.244c-7.734-18.14.702-39.114 18.842-46.848s39.114.702 46.848 18.842c.021.05.042.099.063.149l23.505 56.092c1.749 4.163-.136 8.961-4.25 10.82l-49.844 22.553c-1.079.489-2.25.742-3.435.741zm1.05-95.356c-10.478.014-18.96 8.52-18.946 18.998v.005c.005 2.591.528 5.154 1.539 7.539l20.729 49.347 34.651-15.681-20.354-48.578c-3.019-7.051-9.949-11.626-17.619-11.63z"/><path d="m493.307 406.612v90.65c0 6.243-5.061 11.303-11.303 11.303h-220.873c-6.243 0-11.303-5.061-11.303-11.303v-97.154h-72.348c-13.041 0-24.817-7.802-29.901-19.811l-17.134-39.895 49.846-22.549 8.645 19.718c1.997 4.705 6.613 7.76 11.724 7.76h231.367c33.844 0 61.28 27.436 61.28 61.281z" fill="#338ed8"/><path d="m482.006 516.902h-220.876c-10.841-.012-19.626-8.797-19.638-19.638v-88.818h-64.01c-16.394.019-31.202-9.788-37.582-24.889l-17.114-39.862c-1.791-4.174.088-9.013 4.226-10.885l49.844-22.553c4.196-1.898 9.136-.035 11.033 4.161.013.03.027.059.04.089l8.646 19.719c.673 1.668 2.289 2.762 4.087 2.768h231.364c38.432.044 69.576 31.188 69.62 69.62v90.65c-.014 10.841-8.799 19.626-19.64 19.638zm-340.674-172.271 13.906 32.38c3.766 8.951 12.533 14.769 22.243 14.761h72.347c4.602-.003 8.335 3.726 8.337 8.328v.009 97.155c0 1.637 1.327 2.963 2.963 2.964h220.877c1.637 0 2.963-1.327 2.964-2.964v-90.65c-.032-29.228-23.718-52.914-52.946-52.946h-231.362c-8.461.011-16.105-5.047-19.402-12.839l-5.219-11.903z"/><path d="m433.555 516.902c-4.602.003-8.335-3.726-8.337-8.328 0-.003 0-.006 0-.009v-106.698c0-4.604 3.733-8.337 8.337-8.337s8.337 3.733 8.337 8.337v106.697c.003 4.602-3.726 8.335-8.328 8.337-.003.001-.006.001-.009.001z"/><path d="m108.374 348.743c-4.604-.002-8.334-3.736-8.332-8.34.001-1.257.285-2.498.833-3.629l95.877-198.377c1.983-4.156 6.959-5.917 11.115-3.934s5.917 6.959 3.934 11.115c-.012.025-.024.049-.036.074l-95.877 198.385c-1.394 2.88-4.314 4.708-7.514 4.706z"/><path d="m432.114 265.871c-.012 25.624-14.15 49.154-36.768 61.194v18.258c-11.347 17.911-35.066 23.232-52.977 11.885-4.791-3.035-8.849-7.094-11.885-11.884v-.001-18.258c-22.664-12.005-36.841-35.548-36.85-61.194 0 0 62.778 13.923 89.874-34.015 10.421 34.432 48.606 34.015 48.606 34.015z" fill="#feb683"/><path d="m362.917 371.507c-16.023.045-30.941-8.163-39.479-21.722-.846-1.334-1.295-2.882-1.294-4.462v-13.434c-22.908-14.119-36.856-39.107-36.849-66.017.011-4.613 3.76-8.344 8.373-8.333.59.001 1.178.065 1.755.191 2.32.501 57.147 11.907 80.831-29.978 2.263-4.007 7.346-5.422 11.353-3.159 1.87 1.056 3.26 2.793 3.88 4.848 8.476 28.007 39.96 27.967 40.538 28.093 2.213.042 4.333.901 5.952 2.41 1.585 1.565 2.477 3.7 2.475 5.927.008 26.887-13.904 51.862-36.768 66.009v13.442c0 1.58-.449 3.127-1.295 4.462-8.534 13.555-23.445 21.763-39.463 21.722h-.009zm-24.099-28.765c9.925 13.309 28.76 16.053 42.069 6.128 2.325-1.734 4.387-3.795 6.122-6.119v-15.681c-.001-3.076 1.692-5.902 4.405-7.352 17.498-9.308 29.387-26.534 31.883-46.196-16.649-2.221-31.602-11.324-41.221-25.093-24.116 28.236-61.039 28.895-79.325 27.177 3.064 18.844 14.776 35.167 31.647 44.103 2.719 1.449 4.419 4.279 4.421 7.36z"/></g></svg>